<?xml version="1.0" encoding="UTF-8"?>
<svg version="1.1" xmlns="http://www.w3.org/2000/svg" width="90" height="136">
<path d="M0 0 C0.73511307 0.00359528 1.47022614 0.00719055 2.22761536 0.01089478 C2.99829346 0.01074875 3.76897156 0.01060272 4.56300354 0.01045227 C7.12237823 0.01115157 9.68168104 0.01894471 12.24104309 0.02676392 C14.01081299 0.02862804 15.7805834 0.03005197 17.550354 0.03105164 C22.2176505 0.03487728 26.88491607 0.04470796 31.55220032 0.05575562 C36.31110719 0.06596873 41.07001905 0.07054904 45.82893372 0.07559204 C55.17334837 0.08633019 64.51774004 0.10340717 73.86213684 0.12442017 C75.16303515 2.72621679 75.03053762 4.72133897 75.04963684 7.62442017 C75.06381653 8.60410767 75.07799622 9.58379517 75.09260559 10.59317017 C74.86213684 13.12442017 74.86213684 13.12442017 72.86213684 15.12442017 C70.87392371 15.52206279 68.87269345 15.86217365 66.86213684 16.12442017 C66.6156842 17.21907593 66.36923157 18.31373169 66.11531067 19.44155884 C65.19244407 23.518018 64.24560498 27.5885979 63.2915802 31.65786743 C62.88271494 33.41678088 62.48028766 35.17720421 62.08454895 36.93911743 C61.51314137 39.47783042 60.91847019 42.01013514 60.31916809 44.54238892 C60.1481105 45.32591232 59.97705292 46.10943573 59.80081177 46.91670227 C58.590959 51.89844695 57.24447445 55.08479404 52.86213684 58.12442017 C49.95936946 58.8033453 47.17289651 58.80300678 44.20198059 58.75332642 C42.96164818 58.75694435 42.96164818 58.75694435 41.69625854 58.76063538 C39.95389494 58.75965872 38.21149961 58.74630828 36.46931458 58.72134399 C33.80426158 58.6869798 31.14251643 58.70070556 28.47737122 58.72012329 C26.78139358 58.71322586 25.08542449 58.7035544 23.38948059 58.69082642 C22.59460739 58.69578629 21.79973419 58.70074615 20.98077393 58.70585632 C17.65632852 58.63512727 15.31433748 58.41056862 12.47663879 56.61489868 C10.22665696 53.14414944 9.40533649 49.71778291 8.50276184 45.71035767 C8.21160492 44.49408188 8.21160492 44.49408188 7.91456604 43.25323486 C7.30027452 40.67160062 6.70628218 38.08575647 6.11213684 35.49942017 C5.69803836 33.75172386 5.28268735 32.00432382 4.86604309 30.25723267 C1.86213684 17.55817845 1.86213684 17.55817845 1.86213684 15.12442017 C0.16057434 15.15535767 0.16057434 15.15535767 -1.57536316 15.18692017 C-5.13786316 15.12442017 -5.13786316 15.12442017 -6.13786316 14.12442017 C-6.23679256 11.9596122 -6.26757416 9.79148232 -6.26286316 7.62442017 C-6.26544128 6.43848267 -6.26801941 5.25254517 -6.27067566 4.03067017 C-6.04950772 -0.80900485 -4.38016499 0.00903967 0 0 Z M48.86213684 39.12442017 C48.20213684 41.43442017 47.54213684 43.74442017 46.86213684 46.12442017 C45.74838684 46.10379517 44.63463684 46.08317017 43.48713684 46.06192017 C40.02997763 45.86061299 40.02997763 45.86061299 37.86213684 47.12442017 C37.86213684 48.11442017 37.86213684 49.10442017 37.86213684 50.12442017 C41.82213684 50.12442017 45.78213684 50.12442017 49.86213684 50.12442017 C50.37776184 48.68067017 50.89338684 47.23692017 51.42463684 45.74942017 C51.7146759 44.93731079 52.00471497 44.12520142 52.30354309 43.28848267 C53.12186712 41.09674268 53.12186712 41.09674268 51.86213684 39.12442017 C50.87213684 39.12442017 49.88213684 39.12442017 48.86213684 39.12442017 Z M24.86213684 46.12442017 C24.53213684 47.44442017 24.20213684 48.76442017 23.86213684 50.12442017 C26.50213684 50.12442017 29.14213684 50.12442017 31.86213684 50.12442017 C32.19213684 49.13442017 32.52213684 48.14442017 32.86213684 47.12442017 C30.15334349 45.77002349 27.85280416 46.05940566 24.86213684 46.12442017 Z " fill="#FCFEFD" transform="translate(12.137863159179688,77.87557983398438)"/>
<path d="M0 0 C2.0625 0.4375 2.0625 0.4375 4 1 C6.78799116 13.41466203 7.16402705 31.16188746 2 43 C-4.00546216 52.28772677 -17.46613185 58.81125133 -26.7578125 64.39453125 C-29.09599371 65.88836092 -29.09599371 65.88836092 -30.57421875 68.18359375 C-31.04472656 68.78300781 -31.51523437 69.38242188 -32 70 C-35.6875 70.25 -35.6875 70.25 -39 70 C-37.15506546 56.85484137 -29.43944268 45.87340108 -21 36 C-11.90737336 25.11361264 -5.26097828 14.6799829 -1 1 C-0.67 0.67 -0.34 0.34 0 0 Z " fill="#FAFDFC" transform="translate(77,3)"/>
<path d="M0 0 C1.9375 0.6015625 1.9375 0.6015625 4 2 C4.6875 4.8359375 4.6875 4.8359375 5 8.375 C6.0917928 17.70312441 8.1524651 26.48174085 14 34 C12.59023295 37.03852705 10.91129772 39.5939595 8.875 42.25 C8.33617188 42.95640625 7.79734375 43.6628125 7.2421875 44.390625 C6.83226562 44.92171875 6.42234375 45.4528125 6 46 C2.46223834 45.34027755 -0.13506693 43.87564572 -3.1875 42 C-4.06792969 41.46375 -4.94835938 40.9275 -5.85546875 40.375 C-8 39 -8 39 -9 38 C-9.67421622 30.81449233 -8.43888741 24.18529343 -6.6875 17.25 C-6.47416016 16.34378906 -6.26082031 15.43757812 -6.04101562 14.50390625 C-3.30181914 3.30181914 -3.30181914 3.30181914 0 0 Z " fill="#F8FDFB" transform="translate(40,0)"/>
<path d="M0 0 C3.72756805 1.44394215 4.668793 2.93016212 6.3125 6.5 C9.6066837 12.41065773 14.23103658 15.27434172 19.88208008 18.6875 C24.91391923 21.7417577 24.91391923 21.7417577 26 25 C25.07421875 27.3046875 25.07421875 27.3046875 23.6875 29.875 C21.91415967 33.19810767 20.34402421 36.47903516 19 40 C12.58302251 38.88057641 4.35974704 34.28745761 0.51953125 28.9375 C-0.25004914 26.93737229 -0.69251357 25.11775868 -1 23 C-1.226875 21.96875 -1.45375 20.9375 -1.6875 19.875 C-2.16619035 13.93923971 -2.45480558 7.94330684 -2 2 C-1.34 1.34 -0.68 0.68 0 0 Z " fill="#F8FDFB" transform="translate(16,27)"/>
<path d="M0 0 C0.8046226 11.92629503 -1.71004703 20.42009406 -7 31 C-17.56 31 -28.12 31 -39 31 C-35.36298724 27.36298724 -33.43681107 25.43732376 -29.25 23.125 C-21.28880064 18.50964001 -14.18346977 12.98654655 -8.25 5.9140625 C-7.63125 5.17929687 -7.0125 4.44453125 -6.375 3.6875 C-5.80523437 2.99011719 -5.23546875 2.29273438 -4.6484375 1.57421875 C-3 0 -3 0 0 0 Z " fill="#FAFDFC" transform="translate(90,42)"/>
<path d="M0 0 C4 0 4 0 5.53515625 1.46875 C6.29119141 2.47421875 6.29119141 2.47421875 7.0625 3.5 C13.31989158 11.06770008 21.75028767 16.0487645 30.19921875 20.87109375 C30.79347656 21.24363281 31.38773438 21.61617187 32 22 C32 22.33 32 22.66 32 23 C23.09 23 14.18 23 5 23 C-1.2083823 8.09988249 -1.2083823 8.09988249 -1 1 C-0.67 0.67 -0.34 0.34 0 0 Z " fill="#F8FDFB" transform="translate(1,50)"/>
</svg>
